<svg xmlns="http://www.w3.org/2000/svg" xmlns:xlink="http://www.w3.org/1999/xlink" version="1.1" x="0px" y="0px" viewBox="15 15 70 70" style="enable-background:new 0 0 100 100;" xml:space="preserve"><g><path d="M84.5,49.1c-0.5-0.4-8.3-7.7-19.7-11.7l10-10c0.5-0.5,0.5-1.3,0-1.8s-1.3-0.5-1.8,0L62.1,36.5c-3.8-1.1-7.8-1.8-12.1-1.8   c-18.9,0-33.9,13.8-34.5,14.4c-0.3,0.2-0.4,0.6-0.4,0.9s0.1,0.7,0.4,0.9c0.5,0.4,8.6,7.9,20.2,11.9L26,72.6c-0.5,0.5-0.5,1.3,0,1.8   c0.2,0.2,0.6,0.4,0.9,0.4s0.6-0.1,0.9-0.4l10.7-10.7c3.6,1,7.5,1.7,11.6,1.7c18.9,0,33.9-13.8,34.5-14.4c0.3-0.2,0.4-0.6,0.4-0.9   S84.7,49.3,84.5,49.1z M18.3,50C22,46.9,34.9,37.2,50,37.2c3.5,0,6.9,0.5,10.1,1.4l-5,5c-1.4-1.1-3.2-1.8-5.1-1.8   c-4.5,0-8.2,3.7-8.2,8.2c0,1.9,0.7,3.7,1.8,5.1l-5.8,5.8C28.3,57.8,20.9,52.2,18.3,50z M55.7,50c0,3.2-2.6,5.7-5.7,5.7   c-1,0-2-0.3-2.9-0.8l7.8-7.8C55.5,48,55.7,49,55.7,50z M44.3,50c0-3.2,2.6-5.7,5.7-5.7c1.2,0,2.4,0.4,3.3,1l-8,8   C44.6,52.4,44.3,51.2,44.3,50z M50,62.8c-3.3,0-6.5-0.5-9.5-1.2l4.8-4.8c1.3,0.9,2.9,1.5,4.7,1.5c4.5,0,8.2-3.7,8.2-8.2   c0-1.7-0.5-3.3-1.5-4.7l6-6c9.2,3.1,16.4,8.5,19,10.7C78,53.1,65.1,62.8,50,62.8z"></path></g></svg>